<svg width="1336" height="334" viewBox="0 0 1336 334" fill="none" xmlns="http://www.w3.org/2000/svg">
<path d="M1002 334L1336 0H1134.97L800.981 334H1002ZM954.113 145.457H549.785C426.56 145.457 404.996 151.991 352.217 204.77C302.854 254.132 222.674 334 222.674 334H397.822L439.607 292.215C467.078 264.744 481.245 261.898 538.93 261.898H837.679L954.113 145.457ZM346.824 180.951C310.37 215.346 231.051 292.396 188.299 334H0C0 334 150.885 183.554 234.746 101.007C321.148 18.7597 364.22 0 522.696 0H1099.58L974.668 124.902H534.414C423.06 124.902 398.038 132.619 346.824 180.951Z" fill="#111111"/>
</svg>
