<svg width="104" height="26" viewBox="0 0 104 26" fill="none" xmlns="http://www.w3.org/2000/svg">
<path d="M78 26L104 0H88.3512L62.3518 26H78ZM74.2722 11.323H42.7976C33.2052 11.323 31.5266 11.8316 27.4181 15.9402C23.5755 19.7828 17.3339 26 17.3339 26H30.9682L34.2209 22.7473C36.3594 20.6088 37.4622 20.3873 41.9526 20.3873H65.2085L74.2722 11.323ZM26.9983 14.086C24.1605 16.7635 17.986 22.7614 14.658 26H0C0 26 11.7455 14.2886 18.2737 7.86283C24.9995 1.46033 28.3525 0 40.6889 0H85.5958L75.8723 9.72292H41.6011C32.9328 9.72292 30.985 10.3236 26.9983 14.086Z" fill="#EE0000"/>
</svg>
